<svg width="1792" height="512" viewBox="0 0 1792 512" fill="none" xmlns="http://www.w3.org/2000/svg">
  <defs>
    <radialGradient id="glow" cx="50%" cy="50%" r="50%">
      <stop offset="0%" stop-color="#FF3131" stop-opacity="0.9"/>
      <stop offset="45%" stop-color="#FF3131" stop-opacity="0.25"/>
      <stop offset="100%" stop-color="#FF3131" stop-opacity="0"/>
    </radialGradient>
    <linearGradient id="bg" x1="0" y1="0" x2="1" y2="1">
      <stop offset="0%" stop-color="#020203"/>
      <stop offset="55%" stop-color="#08090B"/>
      <stop offset="100%" stop-color="#010101"/>
    </linearGradient>
    <linearGradient id="redLine" x1="0" y1="0" x2="1" y2="0">
      <stop offset="0%" stop-color="#6D0B0B" stop-opacity="0.25"/>
      <stop offset="50%" stop-color="#FF3131"/>
      <stop offset="100%" stop-color="#FF3131" stop-opacity="0.25"/>
    </linearGradient>
    <filter id="softGlow" x="-50%" y="-50%" width="200%" height="200%">
      <feGaussianBlur stdDeviation="5" result="blur"/>
      <feMerge>
        <feMergeNode in="blur"/>
        <feMergeNode in="SourceGraphic"/>
      </feMerge>
    </filter>
    <filter id="textShadow" x="-20%" y="-20%" width="140%" height="140%">
      <feDropShadow dx="0" dy="4" stdDeviation="6" flood-color="#000000" flood-opacity="0.9"/>
    </filter>
  </defs>
  <rect width="1792" height="512" fill="url(#bg)"/>
  <g opacity="0.22">
    <circle cx="167" cy="58" r="1" fill="#FFFFFF"/><circle cx="319" cy="90" r="0.8" fill="#FFFFFF"/><circle cx="481" cy="37" r="0.9" fill="#FFFFFF"/><circle cx="699" cy="72" r="0.7" fill="#FFFFFF"/><circle cx="938" cy="52" r="0.8" fill="#FFFFFF"/><circle cx="1200" cy="83" r="0.9" fill="#FFFFFF"/><circle cx="1447" cy="43" r="0.7" fill="#FFFFFF"/><circle cx="1631" cy="91" r="1" fill="#FFFFFF"/>
  </g>
  <path d="M0 319 L120 278 L224 309 L344 243 L460 301 L592 230 L711 294 L828 249 L942 300 L1068 232 L1198 295 L1304 212 L1412 296 L1538 179 L1667 286 L1792 221 V512 H0 Z" fill="#0C0D10" opacity="0.55"/>
  <path d="M0 368 L147 334 L280 358 L411 303 L540 350 L657 309 L797 352 L939 296 L1074 348 L1218 291 L1370 346 L1518 263 L1662 352 L1792 300 V512 H0 Z" fill="#07080A" opacity="0.95"/>
  <path d="M0 417 L175 390 L360 410 L552 374 L720 405 L900 358 L1070 399 L1228 357 L1402 407 L1560 355 L1792 398 V512 H0 Z" fill="#030405" opacity="1"/>
  <path d="M110 492 C310 458 455 452 620 425 C795 396 850 371 724 349 C603 328 655 300 795 296 C998 289 1104 316 1205 293 C1301 271 1215 236 1341 221 C1460 206 1521 222 1604 187" stroke="#FF3131" stroke-width="7" stroke-linecap="round" opacity="0.95" filter="url(#softGlow)"/>
  <path d="M110 492 C310 458 455 452 620 425 C795 396 850 371 724 349 C603 328 655 300 795 296 C998 289 1104 316 1205 293 C1301 271 1215 236 1341 221 C1460 206 1521 222 1604 187" stroke="#FF3131" stroke-width="2" stroke-linecap="round" opacity="1"/>
  <line x1="384" y1="270" x2="1408" y2="270" stroke="url(#redLine)" stroke-width="2"/>
  <circle cx="896" cy="270" r="5" fill="#FF3131" filter="url(#softGlow)"/>
  <g text-anchor="middle" filter="url(#textShadow)">
    <text x="896" y="223" font-family="Inter, SF Pro Display, Segoe UI, Arial, sans-serif" font-size="72" font-weight="800" fill="#F5F5F5" letter-spacing="-2">Building <tspan fill="#FF3131">products</tspan> with purpose</text>
    <text x="896" y="326" font-family="Inter, SF Pro Display, Segoe UI, Arial, sans-serif" font-size="28" font-weight="400" fill="#E5E7EB" letter-spacing="18">Felipe Toro</text>
  </g>
  <rect width="1792" height="512" fill="black" opacity="0.08"/>
</svg>
